# xmcd
#
# Track frame offsets: 
#        150
#        17985
#        40633
#        62169
#        89886
#        104011
#        120493
#        141569
#        163710
#        170873
#        177670
#        191555
#        209185
#        225865
#        248448
#        261994
#        274840
#        293328
#        307827
#        326021
#
# Disc length: 4643 seconds
#
# Revision: 11
# Processed by: cddbd v1.5.2PL0 Copyright (c) Steve Scherf et al.
# Submitted via: ExactAudioCopy v1.0b1
#
DISCID=30122114
DTITLE=Styx - The Complete Wooden Nickel Recordings (USA, B0003922-02)
DTITLE=CD2
DYEAR=2005
DGENRE=Progressive Rock
TTITLE0=Witch Wolf
TTITLE1=The Grove Of Eglantine
TTITLE2=Young Man
TTITLE3=As Bad As This
TTITLE4=Winner Takes All
TTITLE5=22 Years
TTITLE6=Jonas Psalter
TTITLE7=The Serpent Is Rising
TTITLE8=Krakatoa
TTITLE9=Hallelujah Chorus (From Handel's Messian)
TTITLE10=Rock and Roll Feeling 
TTITLE11=HAvin' A Ball
TTITLE12=Golden Leak
TTITLE13=A Song For Suzanne 
TTITLE14=A Man Like Me 
TTITLE15=Lies
TTITLE16=Evil Eyes
TTITLE17=Southern Woman
TTITLE18=Christopher, Mr. Christopher
TTITLE19=Man Of Miracles
EXTD=
EXTT0=
EXTT1=
EXTT2=
EXTT3=
EXTT4=
EXTT5=
EXTT6=
EXTT7=
EXTT8=
EXTT9=
EXTT10=
EXTT11=
EXTT12=
EXTT13=
EXTT14=
EXTT15=
EXTT16=
EXTT17=
EXTT18=
EXTT19=
PLAYORDER=
